<svg width="174" height="148" viewBox="0 0 174 148" fill="none" xmlns="http://www.w3.org/2000/svg">
<path d="M70.8564 147.105C56.4761 147.105 43.9769 144.555 33.3589 139.455C22.7409 134.272 14.5057 126.329 8.65326 115.628C2.88442 104.842 0 91.0473 0 74.2424C0 57.0195 3.21884 42.9319 9.65653 31.9794C16.1778 21.027 25.0819 12.959 36.3688 7.77539C47.6556 2.5918 60.4474 0 74.7441 0C83.4391 0 91.6744 0.961473 99.4498 2.88442C107.309 4.80737 114.583 7.44097 121.271 10.7852L106.849 47.0286C100.996 44.4368 95.5203 42.3884 90.4203 40.8835C85.4039 39.295 80.1785 38.5007 74.7441 38.5007C69.8113 38.5007 65.4638 39.7966 61.7015 42.3884C57.9392 44.9802 55.013 48.9097 52.9228 54.1769C50.8327 59.3605 49.7876 65.9654 49.7876 73.9916C49.7876 82.185 50.8327 88.7899 52.9228 93.8063C55.0966 98.8227 58.0646 102.46 61.8269 104.717C65.6728 106.974 70.0621 108.103 74.9949 108.103C82.1014 108.103 89.1662 107.016 96.1891 104.842C103.296 102.585 110.026 99.4916 116.38 95.5621V134.564C110.528 138.41 103.923 141.462 96.5653 143.719C89.208 145.977 80.6383 147.105 70.8564 147.105Z" fill="black"/>
<path d="M120.64 116.779C120.64 107.917 123.232 101.688 128.415 98.0932C133.682 94.4981 139.995 92.7006 147.352 92.7006C154.291 92.7006 160.311 94.4981 165.411 98.0932C170.511 101.688 173.061 107.917 173.061 116.779C173.061 125.223 170.511 131.327 165.411 135.089C160.311 138.851 154.291 140.732 147.352 140.732C139.995 140.732 133.682 138.851 128.415 135.089C123.232 131.327 120.64 125.223 120.64 116.779Z" fill="black"/>
</svg>
