<svg width="488" height="83" viewBox="0 0 488 83" fill="none" xmlns="http://www.w3.org/2000/svg">
<path d="M41.055 83C63.0844 83 78.9946 69.5375 82.2212 50.9571H56.5201C54.6287 58.5228 49.0657 61.6381 42.2788 61.6381C32.4879 61.6381 26.0349 55.4075 26.0349 41.2775C26.0349 27.4812 32.0429 21.3619 41.945 21.3619C49.1769 21.3619 54.5174 24.811 56.4088 32.1542H82.3324C78.7721 12.7949 65.7547 0 42.5013 0C16.3552 0 0 16.0214 0 41.2775C0 66.756 16.9115 83 41.055 83Z" fill="black"/>
<path d="M136.451 1.78016V29.5952H113.643V1.78016H88.4978V80.9973H113.643V51.8472H136.451V80.9973H161.596V1.78016H136.451Z" fill="black"/>
<path d="M210.139 82.8887C234.839 82.8887 252.084 66.8673 252.084 41.3887C252.084 16.0214 234.839 0 210.139 0C185.439 0 168.194 16.0214 168.194 41.3887C168.194 66.8673 185.328 82.8887 210.139 82.8887ZM210.139 61.5268C200.793 61.5268 194.229 55.63 194.229 41.3887C194.229 27.2587 200.793 21.3619 210.139 21.3619C219.485 21.3619 226.049 27.2587 226.049 41.3887C226.049 55.63 219.485 61.5268 210.139 61.5268Z" fill="black"/>
<path d="M328.296 72.9866L327.406 61.3043C326.739 52.181 323.623 46.7292 316.28 43.9477C324.18 40.8324 328.185 34.4906 328.185 25.0335C328.185 12.6836 321.509 1.78016 297.7 1.78016H258.647V80.9973H283.792V55.185H292.471C299.925 55.185 302.261 57.5214 302.595 65.0871L302.929 72.9866C303.04 76.4357 303.485 78.8834 304.487 80.9973H330.188C328.964 78.9946 328.63 77.1032 328.296 72.9866ZM293.806 36.9383H283.792V21.1394H293.806C299.48 21.1394 302.484 23.5871 302.484 29.0389C302.484 34.4906 299.48 36.9383 293.806 36.9383Z" fill="black"/>
<path d="M373.391 1.78016H336.008V80.9973H373.058C399.092 80.9973 412.221 67.6461 412.221 41.3887C412.221 15.1314 399.204 1.78016 373.391 1.78016ZM371.834 60.0804H361.153V22.697H371.834C382.181 22.697 386.186 27.7038 386.186 41.3887C386.186 55.0737 382.181 60.0804 371.834 60.0804Z" fill="black"/>
<path d="M451.636 82.8887C475.445 82.8887 487.795 71.874 487.795 54.8512C487.795 40.7212 478.895 33.1555 459.09 30.374L449.522 29.0389C444.738 28.3713 442.067 26.8137 442.067 23.6984C442.067 20.5831 444.738 18.5804 451.636 18.5804C459.201 18.5804 461.761 21.3619 462.317 26.1461H485.57C484.124 7.7882 471.44 0 450.746 0C423.598 0 417.034 13.4625 417.034 25.9236C417.034 41.055 427.27 48.8432 441.622 50.8458L451.191 52.181C459.758 53.4048 462.428 55.185 462.428 58.6341C462.428 62.3056 459.313 64.0858 452.081 64.0858C445.071 64.0858 440.51 62.3056 439.954 54.9625H415.143C415.921 71.5402 427.381 82.8887 451.636 82.8887Z" fill="black"/>
</svg>
